<?xml version="1.0" standalone="no"?>
<!DOCTYPE svg PUBLIC "-//W3C//DTD SVG 20010904//EN"
 "http://www.w3.org/TR/2001/REC-SVG-20010904/DTD/svg10.dtd">
<svg version="1.0" xmlns="http://www.w3.org/2000/svg"
 width="500.000000pt" height="500.000000pt" viewBox="0 0 500.000000 500.000000"
 preserveAspectRatio="xMidYMid meet">

<g transform="translate(0.000000,500.000000) scale(0.100000,-0.100000)"
fill="#000000" stroke="none">
<path d="M2473 3885 c-36 -15 -63 -51 -63 -83 0 -26 29 -82 42 -82 4 0 8 -87
8 -193 0 -107 3 -289 7 -405 l6 -212 32 0 c28 0 33 4 39 31 3 17 6 194 6 393
l0 362 25 34 c63 85 -9 194 -102 155z"/>
<path d="M2137 3723 c-10 -3 -81 -36 -157 -74 -184 -91 -268 -119 -362 -119
-40 0 -95 7 -122 15 -62 19 -79 7 -50 -32 30 -40 81 -72 126 -79 22 -4 38 -12
38 -20 0 -19 43 -28 106 -21 51 5 54 4 60 -20 8 -31 36 -42 88 -32 30 5 43 4
49 -6 24 -43 63 -54 126 -36 18 5 31 0 50 -17 27 -25 47 -24 109 5 31 15 34
15 58 -8 27 -26 78 -29 140 -9 l34 12 0 104 c0 102 -1 104 -23 104 -38 0 -64
27 -98 100 -49 108 -105 150 -172 133z"/>
<path d="M2804 3721 c-29 -13 -77 -73 -93 -117 -28 -76 -50 -104 -92 -110
l-39 -7 0 -102 0 -102 60 -17 c65 -18 93 -15 126 15 20 19 21 19 68 -1 50 -23
73 -20 100 9 14 16 23 18 49 10 52 -15 76 -11 105 18 22 22 34 26 75 24 51 -3
77 10 77 39 0 15 9 16 76 12 69 -4 76 -3 80 15 4 15 17 22 44 26 43 5 99 40
131 81 32 40 14 51 -52 32 -73 -22 -173 -20 -255 5 -38 11 -136 54 -219 94
-153 75 -204 91 -241 76z"/>
<path d="M2145 3129 c-129 -17 -175 -44 -175 -103 0 -46 61 -106 154 -151 93
-46 164 -62 316 -75 139 -11 175 -19 226 -50 35 -22 64 -65 64 -95 0 -38 -31
-73 -95 -106 -36 -19 -65 -37 -65 -42 0 -4 15 -14 33 -23 31 -15 34 -14 82 13
69 38 131 103 146 151 10 35 9 45 -7 78 -46 94 -162 140 -399 159 -217 18
-315 44 -370 99 -76 76 45 116 180 61 69 -29 68 -28 118 -14 46 13 47 29 2 74
-32 32 -41 35 -88 34 -29 -1 -83 -6 -122 -10z"/>
<path d="M2673 3118 c-39 -28 -57 -62 -40 -76 7 -5 31 -13 54 -17 32 -5 50 -2
85 16 52 27 170 38 193 19 22 -18 19 -56 -7 -79 -32 -31 -143 -70 -233 -84
l-80 -12 72 -28 71 -28 63 26 c119 47 209 135 195 190 -13 53 -81 77 -251 90
-84 6 -92 5 -122 -17z"/>
<path d="M2212 2760 c-73 -93 -12 -200 163 -286 50 -24 96 -44 103 -44 21 0
105 -46 134 -73 52 -49 46 -116 -17 -177 -38 -37 -45 -64 -18 -74 21 -8 87 53
114 106 23 44 25 108 4 147 -26 52 -90 96 -205 141 -124 48 -186 87 -201 128
-16 40 4 97 41 119 17 9 30 20 30 24 0 6 -78 20 -109 18 -9 0 -26 -13 -39 -29z"/>
<path d="M2473 2654 c3 -64 7 -117 9 -119 2 -2 15 -6 31 -10 l27 -7 0 120 c0
116 -1 120 -22 126 -52 13 -51 14 -45 -110z"/>
<path d="M2341 2390 c-41 -56 -48 -99 -26 -156 24 -64 57 -99 152 -161 46 -31
95 -70 108 -88 30 -39 32 -85 5 -110 -20 -18 -28 -75 -11 -75 18 0 79 82 85
115 13 65 -23 117 -129 187 -117 78 -155 123 -155 182 0 29 8 44 42 76 45 44
43 55 -9 66 -28 6 -34 2 -62 -36z"/>
<path d="M2480 2287 c0 -101 2 -116 20 -132 11 -10 22 -16 24 -14 2 2 6 54 10
116 l7 112 -30 16 -31 16 0 -114z"/>
<path d="M2403 2038 c-74 -82 -53 -164 64 -258 76 -61 93 -94 93 -187 1 -64 2
-66 15 -43 20 35 28 93 20 141 -7 42 -33 73 -127 155 -58 50 -68 82 -38 124
22 30 24 80 4 87 -5 2 -19 -7 -31 -19z"/>
<path d="M2480 1953 c0 -74 2 -83 23 -98 l22 -15 3 72 c3 65 1 74 -23 97 l-25
26 0 -82z"/>
<path d="M1308 1879 c-55 -35 -65 -57 -43 -99 23 -44 67 -37 163 25 1 1 0 10
-4 19 -5 14 -12 13 -58 -13 -54 -30 -76 -31 -76 -1 0 11 18 29 45 44 25 15 45
33 45 41 0 22 -19 17 -72 -16z"/>
<path d="M3611 1876 c-29 -53 7 -90 63 -63 42 19 61 4 28 -23 -13 -11 -17 -21
-12 -30 21 -34 75 36 59 78 -12 33 -34 37 -73 13 -38 -24 -59 -12 -32 18 9 10
13 21 9 24 -13 13 -30 7 -42 -17z"/>
<path d="M2433 1737 c-7 -16 -13 -55 -13 -88 0 -68 24 -127 75 -186 l33 -38
-36 73 c-31 64 -36 85 -41 170 -5 87 -7 94 -18 69z"/>
<path d="M3516 1728 c-27 -15 -48 -72 -36 -102 14 -39 54 -60 92 -50 39 12 77
59 60 76 -9 9 -17 5 -33 -16 -28 -36 -69 -33 -83 6 -8 23 -6 32 12 51 25 26
17 51 -12 35z"/>
<path d="M1422 1672 c-40 -37 -50 -50 -41 -59 9 -9 21 -5 50 18 l38 30 -16
-56 c-11 -40 -13 -59 -5 -67 12 -12 23 -5 90 53 34 29 40 38 29 47 -10 9 -22
4 -50 -19 l-36 -30 15 52 c28 92 5 101 -74 31z"/>
<path d="M2480 1680 c0 -52 19 -140 36 -165 12 -17 14 -10 14 63 0 81 -17 142
-40 142 -6 0 -10 -18 -10 -40z"/>
<path d="M3355 1560 c-6 -10 82 -120 96 -120 25 0 15 28 -26 75 -47 56 -59 63
-70 45z"/>
<path d="M1602 1499 c-48 -56 -57 -79 -31 -79 9 0 48 41 90 94 15 19 16 26 6
34 -10 8 -26 -4 -65 -49z"/>
<path d="M3202 1440 l-32 -20 42 -65 c24 -35 46 -65 49 -65 4 0 21 13 38 29
77 72 -6 178 -97 121z m82 -42 c15 -21 7 -58 -14 -58 -8 0 -50 61 -50 74 0 16
50 4 64 -16z"/>
<path d="M1725 1415 c-14 -13 -25 -34 -25 -45 0 -43 38 -89 73 -90 26 0 21 25
-8 38 -35 16 -35 68 0 84 19 9 29 8 49 -6 14 -9 30 -16 36 -16 18 0 11 28 -12
44 -34 24 -85 20 -113 -9z"/>
<path d="M2490 1399 c0 -37 11 -69 21 -63 15 9 10 61 -6 74 -13 10 -15 9 -15
-11z"/>
<path d="M3035 1353 c-16 -8 -31 -17 -33 -18 -1 -1 13 -34 31 -72 l34 -70 36
14 c46 19 52 48 8 38 -36 -8 -49 10 -21 27 31 20 25 39 -10 32 -23 -5 -30 -3
-30 9 0 9 9 19 21 22 20 7 22 26 3 31 -5 2 -22 -4 -39 -13z"/>
<path d="M1953 1330 c-40 -16 -58 -86 -30 -123 17 -24 67 -36 95 -23 25 10 52
54 52 81 0 23 -54 75 -77 74 -10 0 -28 -4 -40 -9z m71 -46 c10 -25 7 -42 -10
-58 -37 -38 -85 -1 -62 48 13 30 62 37 72 10z"/>
<path d="M2867 1283 c-4 -3 -7 -24 -7 -45 0 -47 -12 -48 -40 -3 -23 37 -27 39
-47 27 -10 -6 -10 -23 -2 -72 14 -86 16 -91 34 -84 11 5 13 15 9 45 -4 21 -4
39 -1 39 3 0 15 -16 27 -35 24 -39 40 -38 40 3 0 49 16 58 30 18 6 -20 18 -36
26 -36 19 0 18 15 -8 88 -21 58 -41 76 -61 55z"/>
<path d="M2177 1263 c-2 -5 -10 -37 -17 -71 -11 -54 -11 -65 1 -73 10 -6 17 0
24 22 l11 30 17 -35 c9 -20 23 -36 32 -36 19 0 19 19 0 44 -13 17 -13 21 5 33
30 21 27 71 -6 83 -30 12 -61 13 -67 3z m58 -43 c0 -8 -8 -16 -17 -18 -13 -2
-18 3 -18 18 0 15 5 20 18 18 9 -2 17 -10 17 -18z"/>
<path d="M2390 1206 c0 -18 -3 -54 -6 -80 -6 -42 -5 -46 14 -46 18 0 21 7 24
48 l3 47 28 -47 c18 -31 35 -48 47 -48 18 0 20 7 20 75 0 60 -3 75 -15 75 -11
0 -15 -11 -15 -40 0 -22 -4 -40 -9 -40 -4 0 -19 20 -32 45 -30 56 -59 61 -59
11z"/>
</g>
</svg>
